
<svg height="20pt" viewBox="0 -4 510.82711 510" width="20pt" xmlns="http://www.w3.org/2000/svg"><path d="m201.523438 178.398438c.101562.15625.171874.308593.265624.460937 1.839844 3.296875 4.023438 6.386719 6.519532 9.21875 10.28125 10.738281 27.28125 11.234375 38.171875 1.113281s11.636719-27.109375 1.679687-38.148437c-9.269531-9.96875-33.9375-21.796875-55.699218-30.808594l-.160157-.066406c-5.554687-2.296875-10.921875-4.421875-15.789062-6.261719 6.191406 22.269531 14.570312 43.871094 25.011719 64.492188zm0 0"/><path d="m106.097656 137.011719c-1.828125 5.511719-3.851562 11.273437-6.027344 17.066406h71.851563c-2.183594-5.792969-4.199219-11.554687-6.023437-17.066406zm0 0"/><path d="m44.65625 196.746094c7.210938-.246094 14.027344-3.363282 18.925781-8.660156 2.496094-2.832032 4.683594-5.921876 6.519531-9.21875.09375-.152344.164063-.3125.265626-.460938 10.445312-20.621094 18.824218-42.226562 25.011718-64.5-4.863281 1.851562-10.242187 3.976562-15.804687 6.269531l-.136719.058594c-21.769531 9.011719-46.445312 20.839844-55.714844 30.808594-7.5 8.058593-9.402344 19.84375-4.816406 29.851562 4.582031 10.007813 14.75 16.265625 25.75 15.851563zm0 0"/><path d="m165.164062 213.164062c3.25-2.273437 6.222657-4.917968 8.855469-7.882812h-76.117187c2.605468 2.941406 5.550781 5.570312 8.773437 7.824219 17.617188 12.089843 40.847657 12.113281 58.488281.058593zm0 0"/><path d="m185.355469 184.332031c-2.230469-4.082031-4.394531-8.535156-6.480469-13.1875h-85.835938c-2.082031 4.660157-4.265624 9.105469-6.476562 13.195313.359375 1.320312.71875 2.660156 1.144531 3.871094h96.503907c.390624-1.226563.792968-2.558594 1.144531-3.878907zm0 0"/><path d="m386.382812 267.496094c-1.871093-1.492188-3.03125-3.703125-3.191406-6.09375-.164062-2.386719.683594-4.734375 2.335938-6.46875 31.929687-33.289063 40.890625-82.425782 22.773437-124.847656-18.117187-42.417969-59.8125-69.917969-105.9375-69.875h-113.136719c9.742188 12.085937 15.039063 27.148437 15.003907 42.667968v3.730469c3.589843 1.527344 7.242187 3.121094 10.921875 4.804687h87.210937c35.347657 0 64 28.652344 64 64 0 35.34375-28.652343 64-64 64h-132.265625c-3.496094-.015624-6.625-2.160156-7.902344-5.410156-16.519531 7.136719-35.234374 7.242188-51.832031.289063v235.519531c0 14.140625 11.460938 25.601562 25.597657 25.601562h170.667968c54.390625.058594 102.863282-34.296874 120.828125-85.632812 17.960938-51.335938 1.484375-108.421875-41.074219-142.285156zm-79.753906 176.714844h-136.53125c-4.714844 0-8.535156-3.820313-8.535156-8.53125v-136.535157c0-4.710937 3.820312-8.53125 8.535156-8.53125h136.53125c42.417969 0 76.800782 34.382813 76.800782 76.800781 0 42.414063-34.382813 76.796876-76.800782 76.796876zm0 0"/><path d="m432.726562 69.597656 20.652344 5.539063c7.875 9.78125 21.710938 12.34375 32.566406 6.03125 10.855469-6.3125 15.472657-19.605469 10.867188-31.289063l5.476562-20.480468c1.003907-3.011719.25-6.328126-1.949218-8.613282-2.199219-2.285156-5.488282-3.160156-8.53125-2.273437-3.046875.886719-5.351563 3.390625-5.980469 6.5l-1.03125 3.859375c-7.738281-10.277344-21.929687-13.167969-33.070313-6.734375-11.144531 6.433593-15.734374 20.167969-10.707031 32.007812l-3.855469-1.03125c-2.945312-.792969-6.089843.046875-8.25 2.199219-2.15625 2.15625-3.003906 5.296875-2.21875 8.242188.789063 2.949218 3.085938 5.253906 6.03125 6.042968zm0 0"/><path d="m510.523438 265.089844c-.585938-2.1875-2.015626-4.050782-3.976563-5.183594-1.960937-1.128906-4.289063-1.4375-6.476563-.851562l-3.839843 1.035156c5.027343-11.84375.429687-25.578125-10.714844-32.007813-11.144531-6.433593-25.335937-3.542969-33.078125 6.730469l-1.03125-3.855469c-.789062-2.945312-3.089844-5.246093-6.035156-6.035156-2.945313-.789063-6.089844.054687-8.242188 2.210937-2.15625 2.15625-3 5.296876-2.210937 8.242188l5.480469 20.480469c-4.652344 11.691406-.042969 25.03125 10.835937 31.355469 10.878906 6.324218 24.746094 3.730468 32.605469-6.097657l20.652344-5.527343c2.195312-.585938 4.066406-2.023438 5.199218-3.992188 1.132813-1.972656 1.433594-4.3125.832032-6.503906zm0 0"/><path d="m70.460938 472.765625c4.613281-11.738281-.054688-25.089844-10.976563-31.394531-10.925781-6.308594-24.820313-3.675782-32.679687 6.1875l-20.480469 5.476562c-2.945313.789063-5.246094 3.089844-6.035157 6.035156-.785156 2.945313.054688 6.089844 2.210938 8.246094s5.300781 2.996094 8.246094 2.207032l3.855468-1.035157c-4.980468 11.863281-.386718 25.578125 10.734376 32.042969 11.15625 6.492188 25.414062 3.519531 33.050781-6.886719l1.066406 3.996094c1.21875 4.550781 5.902344 7.253906 10.453125 6.03125 4.550781-1.21875 7.253906-5.898437 6.03125-10.453125zm0 0"/><path d="m82.707031 17.289062 14.710938 3.660157c7.59375 1.914062 12.925781 8.734375 12.945312 16.566406v21.109375c-14.78125 8.558594-24.320312 23.917969-25.4375 40.960938 10.316407-3.984376 18.15625-6.691407 20.480469-7.476563 2.972656-1.011719 6.261719-.308594 8.5625 1.828125 2.300781 2.140625 3.242188 5.375 2.445312 8.414062-.546874 2.089844-2.304687 8.71875-4.949218 17.585938h49.058594c-2.648438-8.867188-4.40625-15.496094-4.949219-17.585938-.796875-3.039062.140625-6.273437 2.441406-8.414062 2.300781-2.136719 5.589844-2.839844 8.566406-1.828125 2.292969.777344 10.136719 3.492187 20.476563 7.476563-1.015625-16.785157-10.277344-31.972657-24.726563-40.566407-.25-.15625-.523437-.257812-.769531-.402343v-21.101563c.015625-7.816406 5.320312-14.628906 12.894531-16.554687l14.761719-3.671876c4.433594-1.25 7.070312-5.796874 5.960938-10.269531-1.109376-4.46875-5.570313-7.25-10.074219-6.285156l-14.820313 3.679687c-15.15625 3.835938-25.773437 17.46875-25.789062 33.101563v14.957031c-5.640625-1.035156-11.425782-1.035156-17.066406 0v-14.957031c-.023438-15.652344-10.667969-29.289063-25.847657-33.109375l-14.761719-3.671875c-2.996093-.847656-6.21875.007813-8.402343 2.226563-2.183594 2.21875-2.988281 5.449218-2.09375 8.433593.890625 2.980469 3.335937 5.242188 6.382812 5.894531zm0 0"/></svg>
